<?xml version="1.0" ?><svg id="Layer_1" style="enable-background:new 0 0 512 512;" version="1.1" viewBox="0 0 512 512" xml:space="preserve" xmlns="http://www.w3.org/2000/svg" xmlns:xlink="http://www.w3.org/1999/xlink"><style type="text/css">
	.st0{fill:#302D86;}
	.st1{fill:#F5CD2B;}
	.st2{fill:#FFFFFF;}
</style><g id="XMLID_1_"><rect class="st0" height="298.7" id="XMLID_12_" width="512" y="106.7"/><polygon class="st1" id="XMLID_11_" points="115.6,106.7 414.3,405.3 414.3,106.7  "/><polygon class="st2" id="XMLID_10_" points="72.2,106.7 61.9,106.7 51.5,106.7 45.2,126.3 61.9,114.1 78.5,126.3  "/><polygon class="st2" id="XMLID_9_" points="354.2,393.2 333.5,393.2 350.2,405.3 360.5,405.3 370.9,405.3 387.5,393.2 366.9,393.2    360.5,373.6  "/><polygon class="st2" id="XMLID_8_" points="99.2,151.5 115.9,163.6 109.5,144 126.2,131.9 105.6,131.9 99.2,112.3 92.8,131.9    72.2,131.9 88.9,144 82.5,163.6  "/><polygon class="st2" id="XMLID_7_" points="136.5,188.8 153.2,200.9 146.8,181.3 163.5,169.2 142.9,169.2 136.5,149.6 130.2,169.2    109.5,169.2 126.2,181.3 119.9,200.9  "/><polygon class="st2" id="XMLID_6_" points="173.9,226.1 190.5,238.3 184.2,218.6 200.9,206.5 180.2,206.5 173.9,186.9 167.5,206.5    146.9,206.5 163.6,218.6 157.2,238.3  "/><polygon class="st2" id="XMLID_5_" points="211.2,263.5 227.9,275.6 221.5,256 238.2,243.9 217.6,243.9 211.2,224.3 204.8,243.9    184.2,243.9 200.9,256 194.5,275.6  "/><polygon class="st2" id="XMLID_4_" points="248.5,300.8 265.2,312.9 258.8,293.3 275.5,281.2 254.9,281.2 248.5,261.6 242.2,281.2    221.6,281.2 238.2,293.3 231.9,312.9  "/><polygon class="st2" id="XMLID_3_" points="285.9,338.1 302.5,350.2 296.2,330.7 312.9,318.5 292.2,318.5 285.9,298.9 279.5,318.5    258.9,318.5 275.6,330.7 269.2,350.2  "/><polygon class="st2" id="XMLID_2_" points="323.2,375.5 339.9,387.6 333.5,368 350.2,355.9 329.6,355.9 323.2,336.3 316.8,355.9    296.2,355.9 312.9,368 306.5,387.6  "/></g></svg>